<svg enable-background="new 0 0 1600 2560" viewBox="0 0 1600 2560" xmlns="http://www.w3.org/2000/svg"><path d="m0 0h1600v2560h-1600z" fill-opacity=".2"/><path d="m1187.6 924.5c-13-12.8-30.7-19.7-49-19.1-130.8 3.9-262.5 29.6-328.8 78.6-6 4.4-14.2 4.4-20.2 0-66.4-49-198-74.7-328.8-78.6-18.3-.6-36 6.3-49 19.1-13.2 12.9-20.7 30.6-20.7 49.1v493.8c0 37 29.6 67.3 66.6 68.1 203.2 5.8 308 61.9 308 84.6 0 18.8 15.2 34.1 34.1 34.1 18.8 0 34.1-15.2 34.1-34.1 0-22.7 104.8-78.8 308-84.7 37-.8 66.6-31.1 66.6-68.1v-493.7c-.2-18.5-7.6-36.2-20.9-49.1zm-712.1 543.4c-9.1-.4-16.3-7.9-16.3-17l-.4-459.7c0-9.4 7.6-17 17-17h.8c190.8 8.7 289.1 62.1 289.1 84v445.6c0 9.4-7.6 17-17 17-2.3 0-4.7-.5-6.8-1.4-85.2-32.6-175.3-50-266.4-51.5zm664.3-17c0 9.1-7.2 16.6-16.3 17-91 1.5-180.9 18.9-265.9 51.4-8.6 3.8-18.7-.2-22.4-8.8-.9-2.1-1.4-4.5-1.4-6.8v-445.6c0-21.9 98.3-75.3 288.7-83.9 9.4-.4 17.4 6.8 17.8 16.2v.8z" fill="#fff" fill-opacity=".5"/></svg>