<svg viewBox="0 0 64 64" xmlns="http://www.w3.org/2000/svg"><path d="m44.01 28.0209h1l.00000022.00000001c2.29946.0956737 4.08822 2.03345 4 4.3332v17.3334l.00000002.00000057c.0882804 2.29979-1.7005 4.23763-4 4.3333h-26l.00000015.00000001c-2.29947-.095727-4.08823-2.03353-4-4.3333v-17.3334l-.00000008-.00000206c-.0881672-2.29973 1.70057-4.23747 4-4.3332h1v-7.0048c0-4.0306.8462-6.3789 2.7289-8.262s4.2294-2.73 8.2583-2.73h2.0254c4.0289 0 6.3759.8468 8.2585 2.73s2.7289 4.2314 2.7289 8.262zm-4-7.0031c0-2.5649-.5387-4.0592-1.7366-5.2576s-2.6914-1.7372-5.2554-1.7372h-2.0156c-2.5639 0-4.0575.5388-5.2553 1.7372s-1.7371 2.6927-1.7371 5.2576v7.0031h16z" fill-rule="evenodd"/></svg>