<svg enable-background="new 0 0 20 24" viewBox="0 0 20 24" xmlns="http://www.w3.org/2000/svg"><path d="m19.7 5.7-5.4-5.4c-.2-.2-.4-.3-.7-.3h-11.6c-1.1 0-2 .9-2 2v19.2.3.5c0 1.1.9 2 2 2h16c1.1 0 2-.9 2-2v-15.6c0-.3-.1-.5-.3-.7zm-1.7 15.7c0 .3-.2.5-.5.5h-15.3c-.1.1-.2 0-.2-.1v-.3-.2-18.8c0-.3.2-.5.5-.5h10.2c.2 0 .3.1.3.2v2.8c0 1.1.9 2 2 2h2.8c.1 0 .2.1.2.2z"/><path d="m14.1 9.1h-8.2c-.5 0-1 .4-1 1 0 .5.4 1 1 1h8.2c.5 0 1-.4 1-1s-.4-1-1-1z"/><path d="m12.1 13h-4.2c-.5 0-1 .5-.9 1 0 .5.4.9.9.9h4.3c.5 0 .9-.4.9-.9s-.4-1-1-1z"/></svg>