<svg enable-background="new 0 0 20 24" viewBox="0 0 20 24" xmlns="http://www.w3.org/2000/svg"><path d="m7.8 7.6c-1.2 0-2.2 1-2.2 2.2s1 2.2 2.2 2.2 2.2-1 2.2-2.2-1-2.2-2.2-2.2z"/><path d="m18 0h-5.2-10.8c-1.1 0-2 .9-2 2v14.8 5.2c0 1.1.9 2 2 2h5.2 10.8c1.1 0 2-.9 2-2v-14.8-5.2c0-1.1-.9-2-2-2zm-1.3 19c-.3.3-.7.5-1.2.5h-6c-.1 0-.1-.1-.2-.1-.2-.1-.2-.3-.1-.5l3.5-5.5.1-.1c.2-.1.4-.1.5.1l3.4 5.1c.2.2.1.4 0 .5zm.7-4.8c0 .1-.1.2-.2.3-.2.1-.4.1-.5-.1l-2.9-4.1c-.2-.3-.5-.5-.9-.5s-.7.2-.9.5l-5.7 8.9c-.1.1-.2.2-.3.2h-1.6c-1.1 0-1.9-.9-1.9-1.9v-11.1c0-1.1.9-1.9 1.9-1.9h11.1c1.1 0 1.9.9 1.9 1.9z"/></svg>