<svg enable-background="new 0 0 20 24" viewBox="0 0 20 24" xmlns="http://www.w3.org/2000/svg"><path d="m15.5 6h3.9c.1 0 .3-.1.3-.2s0-.1-.1-.2l-5.2-5.1c-.1-.1-.3-.1-.4 0 0 0-.1.1-.1.2v3.9c.1.7.8 1.4 1.6 1.4z"/><path d="m19.8 7h-4.2c-1.5 0-2.6-1.1-2.6-2.5v-4.3c0-.1-.1-.2-.2-.2h-10.8c-1.1 0-2 .9-2 2v20c0 1.1.9 2 2 2h16c1.1 0 2-.9 2-2v-14.8c0-.1-.1-.2-.2-.2zm-16-2h5.3c.5 0 1 .4 1 1 0 .5-.4 1-1 1h-5.3c-.5 0-.9-.5-1-1 0-.5.4-1 1-1zm0 4.3h10.3c.5 0 1 .4 1 1 0 .5-.4 1-1 1h-10.3c-.5 0-.9-.4-.9-.9-.1-.7.3-1.1.9-1.1zm9.2 9.4c0 .5-.4 1-1 1h-8.2c-.5 0-.9-.4-.9-.9s.4-1 .9-1h8.3c.5-.1.9.4.9.9zm4-4.2c0 .5-.4 1-1 1h-12.2c-.5 0-.9-.4-.9-.9s.4-1 .9-1h12.3c.5-.1.9.3.9.9z"/></svg>