<svg fill="none" height="24" viewBox="0 0 24 24" width="24" xmlns="http://www.w3.org/2000/svg"><g fill="#000"><path d="m4.5814 8.47112c.43919-.49984 1.05533-.83403 1.75798-.9947 1.73447-.30631 2.86169.34515 3.6606 1.27584 1.35442 1.57784 1.33002 3.55444.39392 5.27684-.94089 1.7313-2.78834 3.1625-4.9879 3.56-.27168.049-.52746-.0914-.65253-.3172-.11328-.2045-.12188-.489.15991-.7638.29389-.2865.56689-.5666.79097-.8352.22152-.2655.41218-.5395.5234-.8149.11333-.2807.15674-.597.02607-.9075-.12769-.3033-.38987-.5244-.7207-.6898-.88602-.443-1.67179-1.4097-1.67179-2.7017 0-.90501.28279-1.5902.72007-2.08788z"/><path d="m14 8.47112c.4392-.49984 1.0553-.83403 1.758-.9947 1.7344-.30631 2.8617.34515 3.6606 1.27584 1.3544 1.57784 1.33 3.55444.3939 5.27684-.9409 1.7313-2.7883 3.1625-4.9879 3.56-.2717.049-.5275-.0914-.6525-.3172-.1133-.2045-.1219-.489.1599-.7638.2939-.2865.5669-.5666.791-.8352.2215-.2655.4121-.5395.5233-.8149.1134-.2807.1568-.597.0261-.9075-.1277-.3033-.3898-.5244-.7207-.6898-.886-.443-1.6718-1.4097-1.6718-2.7017 0-.90501.2828-1.5902.7201-2.08788z"/></g></svg>