<svg fill="none" height="24" viewBox="0 0 24 24" width="24" xmlns="http://www.w3.org/2000/svg"><path clip-rule="evenodd" d="m6.52173 19.2417c-.27614 0-.5-.2239-.5-.5001v-13.39175c0-.27614.22386-.5.5-.5h5.78277c1.3475 0 2.461.34553 3.2407.98231.783.63951 1.216 1.56226 1.216 2.68332 0 1.12936-.5873 2.12812-1.4767 2.70972-.1072.0701-.1676.1933-.1573.321s.0896.2397.2067.2917c1.259.5597 2.1011 1.7418 2.1011 3.2205 0 1.2811-.4833 2.3332-1.3629 3.0623-.8763.7265-2.1318 1.121-3.6601 1.121zm2.74922-11.89458v3.36208h1.96915c.7669 0 1.348-.1695 1.7338-.4647.3801-.29084.5869-.7158.5869-1.27004 0-.52928-.1832-.92778-.5126-1.1974-.3341-.27339-.8377-.42994-1.5054-.42994-.7573 0-1.5146 0-2.27185 0zm0 5.60548v3.7918h2.38905c.8317 0 1.4476-.1774 1.8528-.4975.3991-.3153.6144-.7854.6144-1.4228 0-.6198-.2204-1.0773-.6309-1.3852-.4178-.3133-1.0521-.4863-1.9046-.4863-.7736 0-1.5472 0-2.32075 0z" fill="#000" fill-rule="evenodd"/></svg>