<svg enable-background="new 0 0 24 24" viewBox="0 0 24 24" xmlns="http://www.w3.org/2000/svg"><path clip-rule="evenodd" d="m3.4 24c-.5 0-.8-.4-.8-.8v-22.4c0-.4.4-.8.8-.8h9.7c2.2 0 4.1.6 5.4 1.6 1.3 1.1 2 2.6 2 4.5s-1 3.5-2.5 4.5c-.2.1-.3.3-.3.5s.1.4.3.5c2.1.9 3.5 2.9 3.5 5.4 0 2.1-.8 3.9-2.3 5.1s-3.6 1.9-6.1 1.9zm4.6-19.8v5.6h3.3c1.3 0 2.2-.3 2.9-.8.6-.5 1-1.2 1-2.1s-.3-1.5-.9-2-1.4-.7-2.5-.7c-1.4 0-2.6 0-3.8 0zm0 9.3v6.3h4c1.4 0 2.4-.3 3.1-.8s1-1.3 1-2.4c0-1-.4-1.8-1.1-2.3s-1.8-.8-3.2-.8c-1.2 0-2.6 0-3.8 0z" fill-rule="evenodd"/></svg>