<svg viewBox="0 0 64 64" xmlns="http://www.w3.org/2000/svg"><path d="m52.01 51.0208h-40-.00000017c-2.20914-.0000001-4-1.79086-4-4v-30 .0000006c-.00000033-2.20914 1.79086-4 4-4h40-.00000017c2.20914-.0000001 4 1.79086 4 4v30 .00000035c0 2.20914-1.79086 4-4 4zm-.0053-5.5108.0053-27.489c0-.552285-.447715-1-1-1h-38-.00000004c-.552285.00000002-1 .447715-1 1v27.5382.00000274c.00008774.254051.206108.459929.460159.459841.14959-.00005167.289813-.0728393.375943-.195146l4.4155-6.2726.00000002-.00000002c.234236-.332424.61554-.530126 1.0222-.53h1.3513l5.2516-7.469.00000004-.00000005c.234077-.33289.615551-.530995 1.0225-.531h1.452.00000003c.40677.00001128.788096.197949 1.0222.5306l10.6593 15.1463-.00000002-.00000003c.142337.202251.374184.322595.6215.3226h.58-.00000002c.421559-.00004627.763262-.341825.763216-.763384-.00001725-.157195-.048567-.310551-.139016-.439116l-2.6072-3.705.00000003.00000005c-.323376-.459535-.311723-1.07562.0287999-1.5226l2.3446-3.0774-.00000003.00000004c.236439-.310362.604236-.492522.9944-.4925h2.1367-.00000001c.390129.00000961.757882.182166.9943.4925l6.3283 8.3058.00000001.00000001c.17017.224449.490072.268451.714521.0982807.127448-.0966269.202186-.247445.201879-.407381zm-10.9947-14.4892h-.00000022c-2.76142-.00000012-5-2.23858-5-5 .00000012-2.76142 2.23858-5 5-5 2.76142.00000012 5 2.23858 5 5v-.00000022c0 2.76142-2.23858 5-5 5z" fill-rule="evenodd"/></svg>